<svg width="48" height="48" viewBox="0 0 48 48" fill="none" xmlns="http://www.w3.org/2000/svg">
<rect width="48" height="48.0007" rx="12" fill="#668F6F"/>
<path d="M43.8847 15.5583C42.7291 3.23144 31.0442 6.40933 24.624 9.29843C21.1571 11.2245 20.1298 16.6818 20.7718 19.4104C25.5871 10.743 29.6675 10.8349 34.2544 10.2615C41.9587 9.29834 45.8108 21.3364 36.1804 21.8179C26.5501 22.2995 25.1055 28.0776 23.1795 33.8558C21.6386 38.4784 23.8215 40.2761 25.1055 40.5971C24.4635 40.1156 24.1425 37.1302 27.9946 29.0407C32.8098 18.9288 45.3293 30.9668 43.8847 15.5583Z" fill="white" fill-opacity="0.5"/>
<path d="M5.84558 14.5951C12.3942 7.6613 18.5256 18.1263 20.7726 24.2255C19.4886 23.7439 16.3428 21.8179 14.0315 17.9658C11.1424 13.1506 7.29022 16.0397 6.8087 18.9288C6.32718 21.8179 14.513 26.633 17.8836 28.5591C20.5801 30.1 20.2912 33.0533 19.8096 34.3373C19.3281 29.0406 -2.34023 23.2624 5.84558 14.5951Z" fill="white" fill-opacity="0.5"/>
<path d="M30.5204 16.1769C27.5124 12.8428 24.696 17.8748 23.6639 20.8076C24.2537 20.5761 25.6987 19.6499 26.7603 17.7977C28.0874 15.4823 29.8568 16.8715 30.078 18.2607C30.2992 19.6499 26.5392 21.9653 24.9909 22.8915C23.7523 23.6324 23.885 25.0525 24.1062 25.6699C24.3274 23.123 34.2805 20.3446 30.5204 16.1769Z" fill="white" fill-opacity="0.5"/>
</svg>
