<svg width="48" height="49" viewBox="0 0 48 49" fill="none" xmlns="http://www.w3.org/2000/svg">
<rect y="0.100006" width="48" height="48" rx="12" fill="#DFD9C3" fill-opacity="0.5"/>
<path d="M11.5408 11.5167C11.5408 13.5737 10.9348 22.4258 11.5408 26.9713C11.5408 11.5167 20.6316 10.6077 24.268 11.5167C27.1771 12.2439 29.1165 22.1228 29.7225 26.9713C30.3286 20.6076 30.9953 7.33489 28.8134 5.15307C26.0862 2.4258 11.5411 5.1531 11.5408 11.5167Z" fill="#668F6F"/>
<path d="M38.5442 12.9792C36.3624 10.0701 33.9988 11.7671 33.0897 12.9792C41.0897 16.6156 35.2109 30.858 31.2715 37.5246C39.4533 35.7065 41.2715 16.6156 38.5442 12.9792Z" fill="#668F6F"/>
<rect x="14.9082" y="27.7367" width="3.63636" height="9.09091" rx="1.81818" fill="#668F6F"/>
<rect x="14.9082" y="16.8271" width="3.63636" height="9.09091" rx="1.81818" fill="#668F6F"/>
<rect x="20.3633" y="25.9184" width="3.63636" height="9.09091" rx="1.81818" fill="#668F6F"/>
<rect x="20.3633" y="15.0092" width="3.63636" height="9.09091" rx="1.81818" fill="#668F6F"/>
<path d="M34 42.2819C26 46.6455 10.6667 40.4637 4 36.8273L9.85928 38.2922C15.4879 39.6993 21.4255 39.1837 26.7273 36.8273C30.3636 47.0092 39.7576 33.797 44 25.9182C44 29.5546 42 37.9182 34 42.2819Z" fill="#668F6F"/>
</svg>
