<svg width="36" height="46" viewBox="0 0 36 46" fill="none" xmlns="http://www.w3.org/2000/svg">
<path d="M6.38075 34.1438C5.96075 27.1238 2.15575 19.1688 0.305756 16.0688C1.20575 16.8188 5.18075 20.1188 7.20575 24.2438C8.25611 26.3835 8.78075 30.1688 9.30575 37.2938C9.68052 42.3801 10.8807 42.5438 11.8557 42.3938C12.8307 42.2438 14.4057 29.3925 18.8307 28.8188C22.8807 28.2938 23.6307 30.8438 24.5307 32.6438C25.4307 34.4438 25.3557 39.5438 25.7307 40.2938C26.1057 41.0438 26.3841 40.9685 27.7557 36.9188C29.3307 32.2688 31.3907 28.1188 31.7307 28.9688C31.8807 29.3438 30.3902 34.6349 29.3307 38.4188C28.2807 42.1688 26.9307 45.7688 24.3807 44.4938C21.8307 43.2188 22.1307 39.3188 21.8307 34.1438C21.5864 29.9289 18.5307 30.7688 17.5557 32.4188C16.2705 34.5938 14.7057 46.5029 10.6557 45.4688C7.13075 44.5688 6.90575 42.9188 6.38075 34.1438Z" fill="#668F6F"/>
<path d="M31.8805 27.6938C32.4805 27.0338 32.1305 26.7188 31.8805 26.6438C31.6555 27.5438 29.6305 27.9188 28.2055 27.9939C26.7805 28.0689 24.9055 25.9689 24.9805 25.4438C25.0555 24.9188 27.9805 24.6189 30.3805 24.1688C32.7498 23.7246 32.4805 21.6188 32.1055 21.6938C31.7305 21.7688 32.6305 22.4438 29.6305 22.8188C26.6305 23.1938 23.7806 23.2688 23.3306 24.7688C22.8806 26.2688 23.9306 28.4438 26.3305 29.4938C28.7305 30.5438 31.1305 28.5188 31.8805 27.6938Z" fill="#668F6F"/>
<path d="M26.0308 19.0688C25.0108 18.7088 22.3058 18.5688 21.0808 18.5438C23.0308 19.5188 27.6808 21.6938 30.3807 21.6938C33.6092 21.6938 35.1057 17.7188 35.4807 16.3688C35.8557 15.0188 35.5557 10.9688 32.4807 8.04384C30.0207 5.70384 23.5058 5.36884 20.5558 5.49384L21.2308 17.7188C23.9908 16.6388 24.2808 14.6188 24.0808 13.7438L23.9308 7.74384C28.2058 8.04384 29.4058 8.71883 31.1307 10.5188C34.1539 13.6735 33.8307 18.8438 30.9057 19.7438C28.6548 20.4364 27.3058 19.5188 26.0308 19.0688Z" fill="#668F6F"/>
<path d="M17.1808 0.468862C15.0208 0.408862 14.2808 2.59386 14.1808 3.69386C15.5308 1.89386 18.6058 2.26886 23.1058 2.56886C27.6057 2.86886 29.0307 4.29386 30.1557 4.89386C31.2807 5.49386 31.7307 6.09386 32.0307 5.86886C32.3307 5.64386 29.5557 2.94386 28.3557 2.26886C27.1557 1.59386 19.8808 0.543862 17.1808 0.468862Z" fill="#668F6F"/>
<path d="M13.7307 9.61889C14.0307 8.59889 16.0557 7.29389 17.0307 6.76889L18.1557 21.2439C17.7807 21.3189 15.8757 21.4239 11.2557 21.2439C5.48069 21.0189 1.88069 16.7439 0.605692 13.8189C-0.669307 10.8939 0.305692 7.44388 1.35569 5.26888C2.40569 3.09388 5.78069 2.04388 7.05569 2.04388C8.07569 2.04388 14.1307 4.49389 17.0307 5.71889C15.9807 6.09389 7.73068 3.91889 5.78069 4.14389C3.83069 4.36889 2.33069 7.51889 2.40569 9.61889C2.48069 11.7189 3.23069 12.6189 5.33069 15.8439C7.01069 18.4239 11.6307 18.8189 13.7307 18.6939C13.6057 16.0939 13.4307 10.6389 13.7307 9.61889Z" fill="#668F6F"/>
</svg>
