<svg width="228" height="91" viewBox="0 0 228 91" fill="none" xmlns="http://www.w3.org/2000/svg">
<path d="M13.3687 67.6109C12.5287 53.5709 4.91875 37.6609 1.21875 31.4609C3.01875 32.9609 10.9687 39.5609 15.0187 47.8109C17.1195 52.0902 18.1687 59.6609 19.2187 73.9109C19.9683 84.0834 22.3687 84.4109 24.3187 84.1109C26.2687 83.8109 29.4187 58.1082 38.2687 56.9609C46.3687 55.9109 47.8687 61.0109 49.6687 64.6109C51.4687 68.2109 51.3187 78.4109 52.0687 79.9109C52.8187 81.4109 53.3754 81.2603 56.1187 73.1609C59.2687 63.8609 63.3887 55.5609 64.0687 57.2609C64.3687 58.0109 61.3877 68.5931 59.2687 76.1609C57.1687 83.6609 54.4687 90.8609 49.3687 88.3109C44.2687 85.7609 44.8687 77.9609 44.2687 67.6109C43.78 59.181 37.6687 60.8609 35.7187 64.1609C33.1483 68.5109 30.0187 92.329 21.9187 90.2609C14.8687 88.4609 14.4187 85.1609 13.3687 67.6109Z" fill="url(#paint0_linear_116_1957)"/>
<path d="M64.366 54.7129C65.566 53.3929 64.866 52.7629 64.366 52.6129C63.916 54.4129 59.866 55.1629 57.016 55.3129C54.166 55.4629 50.416 51.2629 50.566 50.2129C50.716 49.1629 56.566 48.5629 61.366 47.6629C66.1045 46.7744 65.566 42.5629 64.816 42.7129C64.066 42.8629 65.866 44.2129 59.866 44.9629C53.866 45.7129 48.166 45.8629 47.266 48.8629C46.366 51.8629 48.466 56.2129 53.266 58.3129C58.066 60.4129 62.866 56.3629 64.366 54.7129Z" fill="url(#paint1_linear_116_1957)"/>
<path d="M52.6687 37.4626C50.6287 36.7426 45.2187 36.4626 42.7687 36.4126C46.6687 38.3626 55.9687 42.7126 61.3687 42.7126C67.8257 42.7126 70.8187 34.7626 71.5687 32.0626C72.3187 29.3626 71.7187 21.2626 65.5687 15.4126C60.6487 10.7326 47.6187 10.0626 41.7188 10.3126L43.0687 34.7626C48.5887 32.6026 49.1687 28.5626 48.7687 26.8126L48.4687 14.8126C57.0187 15.4126 59.4187 16.7626 62.8687 20.3626C68.9151 26.6719 68.2687 37.0126 62.4187 38.8126C57.9169 40.1978 55.2187 38.3626 52.6687 37.4626Z" fill="url(#paint2_linear_116_1957)"/>
<path d="M34.9687 0.262187C30.6487 0.142187 29.1687 4.51219 28.9688 6.71219C31.6687 3.11219 37.8187 3.86218 46.8187 4.46218C55.8187 5.06218 58.6687 7.91218 60.9187 9.11218C63.1687 10.3122 64.0687 11.5122 64.6687 11.0622C65.2687 10.6122 59.7187 5.21218 57.3187 3.86218C54.9187 2.51218 40.3687 0.412187 34.9687 0.262187Z" fill="url(#paint3_linear_116_1957)"/>
<path d="M28.0668 18.5621C28.6668 16.5221 32.7168 13.9121 34.6668 12.8621L36.9168 41.8121C36.1668 41.9621 32.3568 42.1721 23.1168 41.8121C11.5669 41.3621 4.36685 32.8121 1.81685 26.9621C-0.733145 21.1121 1.21685 14.2121 3.31685 9.86211C5.41685 5.51211 12.1668 3.41211 14.7168 3.41211C16.7568 3.41211 28.8668 8.31211 34.6668 10.7621C32.5668 11.5121 16.0668 7.16211 12.1668 7.61211C8.26684 8.06211 5.26685 14.3621 5.41685 18.5621C5.56685 22.7621 7.06684 24.5621 11.2668 31.0121C14.6268 36.1721 23.8668 36.9621 28.0668 36.7121C27.8168 31.5121 27.4668 20.6021 28.0668 18.5621Z" fill="url(#paint4_linear_116_1957)"/>
<path d="M91.3687 23.0375C90.5287 37.0775 82.9187 52.9875 79.2188 59.1875C81.0187 57.6875 88.9687 51.0875 93.0187 42.8375C95.1195 38.5583 96.1687 30.9875 97.2187 16.7375C97.9683 6.56507 100.369 6.2375 102.319 6.5375C104.269 6.8375 107.419 32.5403 116.269 33.6875C124.369 34.7375 125.869 29.6375 127.669 26.0375C129.469 22.4375 129.319 12.2375 130.069 10.7375C130.819 9.2375 131.375 9.38816 134.119 17.4875C137.269 26.7875 141.389 35.0875 142.069 33.3875C142.369 32.6375 139.388 22.0553 137.269 14.4875C135.169 6.9875 132.469 -0.212502 127.369 2.3375C122.269 4.8875 122.869 12.6875 122.269 23.0375C121.78 31.4674 115.669 29.7875 113.719 26.4875C111.148 22.1375 108.019 -1.68059 99.9187 0.387497C92.8687 2.1875 92.4187 5.4875 91.3687 23.0375Z" fill="url(#paint5_linear_116_1957)"/>
<path d="M142.366 35.9375C143.566 37.2575 142.866 37.8875 142.366 38.0375C141.916 36.2375 137.866 35.4875 135.016 35.3375C132.166 35.1875 128.416 39.3875 128.566 40.4375C128.716 41.4875 134.566 42.0875 139.366 42.9875C144.104 43.876 143.566 48.0875 142.816 47.9375C142.066 47.7875 143.866 46.4375 137.866 45.6875C131.866 44.9375 126.166 44.7875 125.266 41.7875C124.366 38.7875 126.466 34.4375 131.266 32.3375C136.066 30.2375 140.866 34.2875 142.366 35.9375Z" fill="url(#paint6_linear_116_1957)"/>
<path d="M130.669 53.1858C128.629 53.9058 123.219 54.1858 120.769 54.2358C124.669 52.2858 133.969 47.9358 139.369 47.9358C145.826 47.9358 148.819 55.8858 149.569 58.5858C150.319 61.2858 149.719 69.3858 143.569 75.2358C138.649 79.9158 125.619 80.5858 119.719 80.3358L121.069 55.8858C126.589 58.0458 127.169 62.0858 126.769 63.8358L126.469 75.8358C135.019 75.2358 137.419 73.8858 140.869 70.2858C146.915 63.9766 146.269 53.6358 140.419 51.8358C135.917 50.4506 133.219 52.2858 130.669 53.1858Z" fill="url(#paint7_linear_116_1957)"/>
<path d="M112.969 90.3863C108.649 90.5063 107.169 86.1363 106.969 83.9363C109.669 87.5362 115.819 86.7863 124.819 86.1863C133.819 85.5863 136.669 82.7363 138.919 81.5363C141.169 80.3363 142.069 79.1363 142.669 79.5863C143.269 80.0363 137.719 85.4363 135.319 86.7863C132.919 88.1363 118.369 90.2363 112.969 90.3863Z" fill="url(#paint8_linear_116_1957)"/>
<path d="M106.067 72.0863C106.667 74.1263 110.717 76.7363 112.667 77.7863L114.917 48.8363C114.167 48.6863 110.357 48.4763 101.117 48.8363C89.5669 49.2863 82.3669 57.8363 79.8169 63.6863C77.2669 69.5363 79.2169 76.4363 81.3169 80.7863C83.4169 85.1363 90.1668 87.2363 92.7168 87.2363C94.7568 87.2363 106.867 82.3363 112.667 79.8863C110.567 79.1363 94.0668 83.4863 90.1668 83.0363C86.2668 82.5863 83.2668 76.2863 83.4168 72.0863C83.5668 67.8863 85.0668 66.0863 89.2668 59.6363C92.6268 54.4763 101.867 53.6863 106.067 53.9363C105.817 59.1363 105.467 70.0463 106.067 72.0863Z" fill="url(#paint9_linear_116_1957)"/>
<path d="M169.369 67.6109C168.529 53.5709 160.919 37.6609 157.219 31.4609C159.019 32.9609 166.969 39.5609 171.019 47.8109C173.119 52.0902 174.169 59.6609 175.219 73.9109C175.968 84.0834 178.369 84.4109 180.319 84.1109C182.269 83.8109 185.419 58.1082 194.269 56.9609C202.369 55.9109 203.869 61.0109 205.669 64.6109C207.469 68.2109 207.319 78.4109 208.069 79.9109C208.819 81.4109 209.375 81.2603 212.119 73.1609C215.269 63.8609 219.389 55.5609 220.069 57.2609C220.369 58.0109 217.388 68.5931 215.269 76.1609C213.169 83.6609 210.469 90.8609 205.369 88.3109C200.269 85.7609 200.869 77.9609 200.269 67.6109C199.78 59.181 193.669 60.8609 191.719 64.1609C189.148 68.5109 186.019 92.329 177.919 90.2609C170.869 88.4609 170.419 85.1609 169.369 67.6109Z" fill="url(#paint10_linear_116_1957)"/>
<path d="M220.366 54.7129C221.566 53.3929 220.866 52.7629 220.366 52.6129C219.916 54.4129 215.866 55.1629 213.016 55.3129C210.166 55.4629 206.416 51.2629 206.566 50.2129C206.716 49.1629 212.566 48.5629 217.366 47.6629C222.104 46.7744 221.566 42.5629 220.816 42.7129C220.066 42.8629 221.866 44.2129 215.866 44.9629C209.866 45.7129 204.166 45.8629 203.266 48.8629C202.366 51.8629 204.466 56.2129 209.266 58.3129C214.066 60.4129 218.866 56.3629 220.366 54.7129Z" fill="url(#paint11_linear_116_1957)"/>
<path d="M208.669 37.4626C206.629 36.7426 201.219 36.4626 198.769 36.4126C202.669 38.3626 211.969 42.7126 217.369 42.7126C223.826 42.7126 226.819 34.7626 227.569 32.0626C228.319 29.3626 227.719 21.2626 221.569 15.4126C216.649 10.7326 203.619 10.0626 197.719 10.3126L199.069 34.7626C204.589 32.6026 205.169 28.5626 204.769 26.8126L204.469 14.8126C213.019 15.4126 215.419 16.7626 218.869 20.3626C224.915 26.6719 224.269 37.0126 218.419 38.8126C213.917 40.1978 211.219 38.3626 208.669 37.4626Z" fill="url(#paint12_linear_116_1957)"/>
<path d="M190.969 0.262187C186.649 0.142187 185.169 4.51219 184.969 6.71219C187.669 3.11219 193.819 3.86218 202.819 4.46218C211.819 5.06218 214.669 7.91218 216.919 9.11218C219.169 10.3122 220.069 11.5122 220.669 11.0622C221.269 10.6122 215.719 5.21218 213.319 3.86218C210.919 2.51218 196.369 0.412187 190.969 0.262187Z" fill="url(#paint13_linear_116_1957)"/>
<path d="M184.067 18.5621C184.667 16.5221 188.717 13.9121 190.667 12.8621L192.917 41.8121C192.167 41.9621 188.357 42.1721 179.117 41.8121C167.567 41.3621 160.367 32.8121 157.817 26.9621C155.267 21.1121 157.217 14.2121 159.317 9.86211C161.417 5.51211 168.167 3.41211 170.717 3.41211C172.757 3.41211 184.867 8.31211 190.667 10.7621C188.567 11.5121 172.067 7.16211 168.167 7.61211C164.267 8.06211 161.267 14.3621 161.417 18.5621C161.567 22.7621 163.067 24.5621 167.267 31.0121C170.627 36.1721 179.867 36.9621 184.067 36.7121C183.817 31.5121 183.467 20.6021 184.067 18.5621Z" fill="url(#paint14_linear_116_1957)"/>
<defs>
<linearGradient id="paint0_linear_116_1957" x1="64.0897" y1="60.9244" x2="1.21875" y2="60.9244" gradientUnits="userSpaceOnUse">
<stop stop-color="#658F6F"/>
<stop offset="1" stop-color="#B9B6AE"/>
</linearGradient>
<linearGradient id="paint1_linear_116_1957" x1="65.3087" y1="50.8062" x2="47.0625" y2="50.8062" gradientUnits="userSpaceOnUse">
<stop stop-color="#658F6F"/>
<stop offset="1" stop-color="#B9B6AE"/>
</linearGradient>
<linearGradient id="paint2_linear_116_1957" x1="71.8237" y1="26.4901" x2="41.7188" y2="26.4901" gradientUnits="userSpaceOnUse">
<stop stop-color="#658F6F"/>
<stop offset="1" stop-color="#B9B6AE"/>
</linearGradient>
<linearGradient id="paint3_linear_116_1957" x1="64.7138" y1="5.70934" x2="28.9688" y2="5.70934" gradientUnits="userSpaceOnUse">
<stop stop-color="#658F6F"/>
<stop offset="1" stop-color="#B9B6AE"/>
</linearGradient>
<linearGradient id="paint4_linear_116_1957" x1="36.9168" y1="22.7115" x2="0.605469" y2="22.7115" gradientUnits="userSpaceOnUse">
<stop stop-color="#658F6F"/>
<stop offset="1" stop-color="#B9B6AE"/>
</linearGradient>
<linearGradient id="paint5_linear_116_1957" x1="142.09" y1="29.724" x2="79.2188" y2="29.724" gradientUnits="userSpaceOnUse">
<stop stop-color="#658F6F"/>
<stop offset="1" stop-color="#B9B6AE"/>
</linearGradient>
<linearGradient id="paint6_linear_116_1957" x1="143.309" y1="39.8442" x2="125.062" y2="39.8442" gradientUnits="userSpaceOnUse">
<stop stop-color="#658F6F"/>
<stop offset="1" stop-color="#B9B6AE"/>
</linearGradient>
<linearGradient id="paint7_linear_116_1957" x1="149.824" y1="64.1583" x2="119.719" y2="64.1583" gradientUnits="userSpaceOnUse">
<stop stop-color="#658F6F"/>
<stop offset="1" stop-color="#B9B6AE"/>
</linearGradient>
<linearGradient id="paint8_linear_116_1957" x1="142.714" y1="84.9391" x2="106.969" y2="84.9391" gradientUnits="userSpaceOnUse">
<stop stop-color="#658F6F"/>
<stop offset="1" stop-color="#B9B6AE"/>
</linearGradient>
<linearGradient id="paint9_linear_116_1957" x1="114.917" y1="67.9369" x2="78.6055" y2="67.9369" gradientUnits="userSpaceOnUse">
<stop stop-color="#658F6F"/>
<stop offset="1" stop-color="#B9B6AE"/>
</linearGradient>
<linearGradient id="paint10_linear_116_1957" x1="220.09" y1="60.9244" x2="157.219" y2="60.9244" gradientUnits="userSpaceOnUse">
<stop stop-color="#658F6F"/>
<stop offset="1" stop-color="#B9B6AE"/>
</linearGradient>
<linearGradient id="paint11_linear_116_1957" x1="221.309" y1="50.8062" x2="203.062" y2="50.8062" gradientUnits="userSpaceOnUse">
<stop stop-color="#658F6F"/>
<stop offset="1" stop-color="#B9B6AE"/>
</linearGradient>
<linearGradient id="paint12_linear_116_1957" x1="227.824" y1="26.4901" x2="197.719" y2="26.4901" gradientUnits="userSpaceOnUse">
<stop stop-color="#658F6F"/>
<stop offset="1" stop-color="#B9B6AE"/>
</linearGradient>
<linearGradient id="paint13_linear_116_1957" x1="220.714" y1="5.70934" x2="184.969" y2="5.70934" gradientUnits="userSpaceOnUse">
<stop stop-color="#658F6F"/>
<stop offset="1" stop-color="#B9B6AE"/>
</linearGradient>
<linearGradient id="paint14_linear_116_1957" x1="192.917" y1="22.7115" x2="156.605" y2="22.7115" gradientUnits="userSpaceOnUse">
<stop stop-color="#658F6F"/>
<stop offset="1" stop-color="#B9B6AE"/>
</linearGradient>
</defs>
</svg>
