<svg width="48" height="48" viewBox="0 0 48 48" fill="none" xmlns="http://www.w3.org/2000/svg">
<g filter="url(#filter0_b_116_1482)">
<rect width="48" height="48" rx="18" fill="#668F6F" fill-opacity="0.5"/>
<path d="M15.9946 32.3383C15.6922 27.2839 12.9526 21.5563 11.6206 19.3243C12.2686 19.8643 15.1306 22.2403 16.5886 25.2103C17.3449 26.7509 17.7226 29.4763 18.1006 34.6063C18.3704 38.2684 19.2346 38.3863 19.9366 38.2783C20.6386 38.1703 21.7726 28.9173 24.9586 28.5043C27.8746 28.1263 28.4146 29.9623 29.0626 31.2583C29.7106 32.5543 29.6566 36.2263 29.9266 36.7663C30.1966 37.3063 30.397 37.2521 31.3846 34.3363C32.5186 30.9883 34.0018 28.0003 34.2466 28.6123C34.3546 28.8823 33.2814 32.6919 32.5186 35.4163C31.7626 38.1163 30.7906 40.7083 28.9546 39.7903C27.1186 38.8723 27.3346 36.0643 27.1186 32.3383C26.9427 29.3036 24.7426 29.9083 24.0406 31.0963C23.1152 32.6623 21.9886 41.2369 19.0726 40.4923C16.5346 39.8443 16.3726 38.6563 15.9946 32.3383Z" fill="white"/>
<path d="M34.3543 27.6946C34.7863 27.2194 34.5343 26.9926 34.3543 26.9386C34.1923 27.5866 32.7343 27.8566 31.7083 27.9106C30.6823 27.9646 29.3323 26.4526 29.3863 26.0746C29.4403 25.6966 31.5463 25.4806 33.2743 25.1566C34.9801 24.8367 34.7863 23.3206 34.5163 23.3746C34.2463 23.4286 34.8943 23.9146 32.7343 24.1846C30.5743 24.4546 28.5223 24.5086 28.1983 25.5886C27.8743 26.6686 28.6303 28.2346 30.3583 28.9906C32.0863 29.7466 33.8143 28.2886 34.3543 27.6946Z" fill="white"/>
<path d="M30.1437 21.4846C29.4093 21.2254 27.4617 21.1246 26.5797 21.1066C27.9837 21.8086 31.3317 23.3746 33.2757 23.3746C35.6002 23.3746 36.6777 20.5126 36.9477 19.5406C37.2177 18.5685 37.0017 15.6526 34.7877 13.5466C33.0165 11.8618 28.3257 11.6206 26.2017 11.7106L26.6877 20.5126C28.6749 19.735 28.8837 18.2806 28.7397 17.6506L28.6317 13.3306C31.7097 13.5466 32.5737 14.0325 33.8157 15.3286C35.9923 17.5999 35.7597 21.3226 33.6537 21.9706C32.033 22.4692 31.0617 21.8086 30.1437 21.4846Z" fill="white"/>
<path d="M23.7712 8.09242C22.216 8.04922 21.6832 9.62242 21.6112 10.4144C22.5832 9.11843 24.7972 9.38842 28.0372 9.60442C31.2772 9.82042 32.3032 10.8464 33.1132 11.2784C33.9232 11.7104 34.2472 12.1424 34.4632 11.9804C34.6792 11.8184 32.6812 9.87442 31.8172 9.38842C30.9532 8.90242 25.7152 8.14642 23.7712 8.09242Z" fill="white"/>
<path d="M21.2872 14.6804C21.5032 13.946 22.9612 13.0064 23.6632 12.6284L24.4732 23.0504C24.2032 23.1044 22.8316 23.18 19.5052 23.0504C15.3472 22.8884 12.7552 19.8104 11.8372 17.7044C10.9192 15.5984 11.6212 13.1144 12.3772 11.5484C13.1332 9.98244 15.5632 9.22644 16.4812 9.22644C17.2156 9.22644 21.5752 10.9904 23.6632 11.8724C22.9072 12.1424 16.9672 10.5764 15.5632 10.7384C14.1592 10.9004 13.0792 13.1684 13.1332 14.6804C13.1872 16.1924 13.7272 16.8404 15.2392 19.1624C16.4488 21.02 19.7752 21.3044 21.2872 21.2144C21.1972 19.3424 21.0712 15.4148 21.2872 14.6804Z" fill="white"/>
</g>
<defs>
<filter id="filter0_b_116_1482" x="-30" y="-30" width="108" height="108" filterUnits="userSpaceOnUse" color-interpolation-filters="sRGB">
<feFlood flood-opacity="0" result="BackgroundImageFix"/>
<feGaussianBlur in="BackgroundImageFix" stdDeviation="15"/>
<feComposite in2="SourceAlpha" operator="in" result="effect1_backgroundBlur_116_1482"/>
<feBlend mode="normal" in="SourceGraphic" in2="effect1_backgroundBlur_116_1482" result="shape"/>
</filter>
</defs>
</svg>
