<svg width="478" height="478" viewBox="0 0 478 478" fill="none" xmlns="http://www.w3.org/2000/svg">
<circle cx="239" cy="239" r="239" fill="#E0DACE"/>
<path d="M162.538 313.508C159.738 266.708 134.371 213.675 122.038 193.008C128.038 198.008 154.538 220.008 168.038 247.508C175.04 261.772 178.538 287.008 182.038 334.508C184.537 368.416 192.538 369.508 199.038 368.508C205.538 367.508 216.038 281.832 245.538 278.008C272.538 274.508 277.538 291.508 283.538 303.508C289.538 315.508 289.038 349.508 291.538 354.508C294.038 359.508 295.894 359.006 305.038 332.008C315.538 301.008 329.271 273.341 331.538 279.008C332.538 281.508 322.601 316.782 315.538 342.008C308.538 367.008 299.538 391.008 282.538 382.508C265.538 374.008 267.538 348.008 265.538 313.508C263.909 285.408 243.538 291.008 237.038 302.008C228.47 316.508 218.038 395.902 191.038 389.008C167.538 383.008 166.038 372.008 162.538 313.508Z" fill="#658F6F"/>
<path d="M332.538 270.508C336.538 266.108 334.204 264.008 332.538 263.508C331.038 269.508 317.538 272.008 308.038 272.508C298.538 273.008 286.038 259.008 286.538 255.508C287.038 252.008 306.538 250.008 322.538 247.008C338.333 244.047 336.538 230.008 334.038 230.508C331.538 231.008 337.538 235.508 317.538 238.008C297.538 240.508 278.538 241.008 275.538 251.008C272.538 261.008 279.538 275.508 295.538 282.508C311.538 289.508 327.538 276.008 332.538 270.508Z" fill="#658F6F"/>
<path d="M293.538 213.008C286.738 210.608 268.705 209.675 260.538 209.508C273.538 216.008 304.538 230.508 322.538 230.508C344.061 230.508 354.038 204.008 356.538 195.008C359.038 186.008 357.038 159.008 336.538 139.508C320.138 123.908 276.705 121.675 257.038 122.508L261.538 204.008C279.938 196.808 281.871 183.341 280.538 177.508L279.538 137.508C308.038 139.508 316.038 144.008 327.538 156.008C347.693 177.039 345.538 211.508 326.038 217.508C311.032 222.125 302.038 216.008 293.538 213.008Z" fill="#658F6F"/>
<path d="M234.538 89.0081C220.138 88.6081 215.205 103.175 214.538 110.508C223.538 98.5081 244.038 101.008 274.038 103.008C304.038 105.008 313.538 114.508 321.038 118.508C328.538 122.508 331.538 126.508 333.538 125.008C335.538 123.508 317.038 105.508 309.038 101.008C301.038 96.5081 252.538 89.5081 234.538 89.0081Z" fill="#658F6F"/>
<path d="M211.538 150.008C213.538 143.208 227.038 134.508 233.538 131.008L241.038 227.508C238.538 228.008 225.838 228.708 195.038 227.508C156.538 226.008 132.538 197.508 124.038 178.008C115.538 158.508 122.038 135.508 129.038 121.008C136.038 106.508 158.538 99.5081 167.038 99.5081C173.838 99.5081 214.205 115.841 233.538 124.008C226.538 126.508 171.538 112.008 158.538 113.508C145.538 115.008 135.538 136.008 136.038 150.008C136.538 164.008 141.538 170.008 155.538 191.508C166.738 208.708 197.538 211.341 211.538 210.508C210.705 193.175 209.538 156.808 211.538 150.008Z" fill="#658F6F"/>
</svg>
